<svg width="100" height="100" viewBox="0 0 100 100" fill="none" xmlns="http://www.w3.org/2000/svg">
<g clip-path="url(#clip0)">
<rect width="100" height="100" rx="10" fill="#300202" fill-opacity="0.69"/>
<g filter="url(#filter0_d)">
<rect x="5" y="5" width="90" height="90" rx="15" fill="#410A0A" fill-opacity="0.5"/>
</g>
<rect width="2.4329" height="17.1967" rx="1.21645" transform="matrix(-0.870409 0.492329 0.492329 0.870409 62.1176 38)" fill="#420909"/>
<rect width="2.4329" height="17.1967" rx="1.21645" transform="matrix(-0.848018 -0.529967 -0.529967 0.848018 81.1768 26.2894)" fill="#420909"/>
<rect x="67.3224" y="26.1628" width="5.83333" height="41.2323" rx="2.91667" transform="rotate(2 67.3224 26.1628)" fill="#420909"/>
<rect width="2.4329" height="17.1967" rx="1.21645" transform="matrix(-0.829038 0.559193 0.559193 0.829038 18.5988 37.918)" fill="#420909"/>
<rect width="2.4329" height="17.1967" rx="1.21645" transform="matrix(-0.887035 -0.461702 -0.461702 0.887035 36.679 24.7462)" fill="#420909"/>
<rect x="22.8575" y="25.7085" width="5.83333" height="41.2323" rx="2.91667" transform="rotate(-2.50624 22.8575 25.7085)" fill="#420909"/>
<rect x="46" y="26" width="7" height="51" rx="3" fill="#420909"/>
<rect x="61.4532" y="47.7566" width="2.4777" height="18.0518" rx="1.23885" transform="rotate(47.3358 61.4532 47.7566)" fill="#420909"/>
<rect x="60.4588" y="29.9899" width="2.4777" height="18.0518" rx="1.23885" transform="rotate(39.1167 60.4588 29.9899)" fill="#420909"/>
<rect x="33" y="39.9398" width="2.4777" height="18.0518" rx="1.23885" transform="rotate(-51.5262 33 39.9398)" fill="#420909"/>
</g>
<defs>
<filter id="filter0_d" x="1" y="5" width="98" height="98" filterUnits="userSpaceOnUse" color-interpolation-filters="sRGB">
<feFlood flood-opacity="0" result="BackgroundImageFix"/>
<feColorMatrix in="SourceAlpha" type="matrix" values="0 0 0 0 0 0 0 0 0 0 0 0 0 0 0 0 0 0 127 0"/>
<feOffset dy="4"/>
<feGaussianBlur stdDeviation="2"/>
<feColorMatrix type="matrix" values="0 0 0 0 0 0 0 0 0 0 0 0 0 0 0 0 0 0 0.25 0"/>
<feBlend mode="normal" in2="BackgroundImageFix" result="effect1_dropShadow"/>
<feBlend mode="normal" in="SourceGraphic" in2="effect1_dropShadow" result="shape"/>
</filter>
<clipPath id="clip0">
<rect width="100" height="100" fill="white"/>
</clipPath>
</defs>
</svg>
